<svg width="1473" height="1473" viewBox="0 0 1473 1473" fill="none" xmlns="http://www.w3.org/2000/svg">
<g filter="url(#filter0_d_27_92)">
<rect x="4" width="1465" height="1465" rx="640" fill="#2B4D3C"/>
<rect x="20.5" y="16.5" width="1432" height="1432" rx="623.5" stroke="#DAD7CD" stroke-opacity="0.11" stroke-width="33"/>
<g clip-path="url(#clip0_27_92)">
<path d="M688.126 929.291C690.912 932.927 695.193 935.039 699.768 935.039H1022.36C1022.56 935.009 1022.74 935.039 1022.95 935.039C1031.04 935.039 1037.61 928.47 1037.61 920.376C1037.61 918.939 1037.4 917.531 1036.99 916.211C1034.5 558.252 708.977 409.889 705.692 408.423C700.648 406.194 694.783 406.927 690.501 410.447C686.219 413.937 684.255 419.538 685.428 424.905C685.721 426.254 714.431 560.628 714.431 700.427C714.431 808.876 685.897 915.478 685.633 916.534C684.43 920.962 685.34 925.654 688.126 929.291ZM406.503 935.039H582.462C590.556 935.039 597.126 928.47 597.126 920.376V627.111C597.126 620.512 592.727 614.735 586.363 612.975C580.087 611.157 573.254 613.914 569.881 619.574L393.922 912.839C391.195 917.384 391.136 923.015 393.746 927.619C396.356 932.223 401.225 935.039 406.503 935.039ZM1064.15 971.316C1061.48 967.005 1056.76 964.365 1051.69 964.365H655.779V421.825C655.779 413.731 649.209 407.162 641.115 407.162H553.136C547.212 407.162 541.845 410.74 539.587 416.224C537.3 421.708 538.561 428.013 542.754 432.207L561.699 451.152L542.754 470.097C538.561 474.29 537.3 480.596 539.587 486.08C541.845 491.564 547.212 495.142 553.136 495.142H626.452V964.365H377.177C369.083 964.365 362.514 970.934 362.514 979.028V1008.35C362.514 1064.96 408.556 1111 465.156 1111H884.29C956.962 1111 1022.3 1070.62 1054.77 1005.63L1064.8 985.598C1067.08 981.052 1066.85 975.656 1064.15 971.316Z" fill="#DAD7CD" fill-opacity="0.08"/>
</g>
<g clip-path="url(#clip1_27_92)">
<path d="M713.263 899.127C716.049 902.763 720.33 904.874 724.905 904.874H1047.5C1047.7 904.845 1047.88 904.874 1048.08 904.874C1056.18 904.874 1062.75 898.305 1062.75 890.211C1062.75 888.774 1062.54 887.367 1062.13 886.047C1059.64 528.088 734.114 379.725 730.829 378.259C725.785 376.03 719.92 376.763 715.638 380.282C711.356 383.772 709.391 389.374 710.565 394.74C710.858 396.089 739.568 530.463 739.568 670.263C739.568 778.712 711.034 885.314 710.77 886.369C709.567 890.798 710.477 895.49 713.263 899.127ZM431.64 904.874H607.599C615.693 904.874 622.263 898.305 622.263 890.211V596.946C622.263 590.348 617.864 584.571 611.5 582.811C605.224 580.993 598.391 583.749 595.018 589.41L419.059 882.674C416.332 887.22 416.273 892.851 418.883 897.455C421.493 902.059 426.362 904.874 431.64 904.874ZM1089.29 941.151C1086.62 936.84 1081.9 934.201 1076.82 934.201H680.915V391.661C680.915 383.567 674.346 376.998 666.252 376.998H578.273C572.349 376.998 566.982 380.576 564.724 386.06C562.436 391.544 563.698 397.849 567.891 402.043L586.836 420.988L567.891 439.932C563.698 444.126 562.436 450.431 564.724 455.915C566.982 461.399 572.349 464.977 578.273 464.977H651.589V934.201H402.314C394.22 934.201 387.651 940.77 387.651 948.864V978.191C387.651 1034.79 433.693 1080.83 490.293 1080.83H909.427C982.098 1080.83 1047.44 1040.45 1079.9 975.463L1089.93 955.433C1092.22 950.888 1091.98 945.492 1089.29 941.151Z" fill="#FFEBA9"/>
</g>
</g>
<defs>
<filter id="filter0_d_27_92" x="0" y="0" width="1473" height="1473" filterUnits="userSpaceOnUse" color-interpolation-filters="sRGB">
<feFlood flood-opacity="0" result="BackgroundImageFix"/>
<feColorMatrix in="SourceAlpha" type="matrix" values="0 0 0 0 0 0 0 0 0 0 0 0 0 0 0 0 0 0 127 0" result="hardAlpha"/>
<feOffset dy="4"/>
<feGaussianBlur stdDeviation="2"/>
<feComposite in2="hardAlpha" operator="out"/>
<feColorMatrix type="matrix" values="0 0 0 0 0 0 0 0 0 0 0 0 0 0 0 0 0 0 0.25 0"/>
<feBlend mode="normal" in2="BackgroundImageFix" result="effect1_dropShadow_27_92"/>
<feBlend mode="normal" in="SourceGraphic" in2="effect1_dropShadow_27_92" result="shape"/>
</filter>
<clipPath id="clip0_27_92">
<rect width="703.836" height="703.836" fill="white" transform="translate(362.514 407.164)"/>
</clipPath>
<clipPath id="clip1_27_92">
<rect width="703.836" height="703.836" fill="white" transform="translate(387.651 377)"/>
</clipPath>
</defs>
</svg>
